 <svg version="1.0" xmlns="http://www.w3.org/2000/svg" width="700.000000pt" height="518.000000pt" viewBox="0 0 700.000000 518.000000" preserveAspectRatio="xMidYMid meet">
<metadata>
Created by potrace 1.12, written by Peter Selinger 2001-2015
</metadata>
<g transform="translate(0.000000,518.000000) scale(0.100000,-0.100000)" fill="#000000" stroke="none">
<path d="M3320 4537 c-3 -3 -66 -12 -140 -21 -74 -9 -148 -21 -165 -26 -16 -5
-70 -21 -120 -35 -461 -135 -864 -432 -1126 -830 -181 -273 -281 -543 -330
-890 -13 -95 -13 -401 0 -505 20 -146 78 -379 117 -465 7 -16 23 -55 34 -85
42 -108 153 -300 246 -425 135 -180 312 -347 514 -482 82 -55 88 -58 240 -133
564 -278 1243 -271 1815 20 310 158 578 395 773 685 138 204 255 473 298 685
9 41 20 95 25 119 32 154 28 544 -7 706 -8 38 -19 93 -24 120 -32 164 -162
464 -275 635 -323 487 -858 831 -1410 906 -116 16 -455 31 -465 21z m388 -58
c448 -49 865 -252 1190 -579 488 -491 683 -1172 532 -1862 -107 -490 -429
-950 -861 -1231 -361 -235 -801 -348 -1231 -318 -79 6 -170 16 -203 22 -737
133 -1332 648 -1564 1353 -210 641 -87 1333 334 1871 140 179 382 386 584 499
238 134 533 227 786 249 94 8 343 6 433 -4z"></path>
<path d="M2285 3626 c-74 -33 -123 -124 -106 -198 13 -57 41 -94 160 -213 61
-60 111 -117 111 -125 0 -8 -52 -67 -116 -130 -64 -63 -122 -129 -130 -147
-45 -105 30 -235 144 -250 73 -10 108 11 244 145 l128 126 118 -117 c66 -65
135 -123 155 -132 95 -39 192 1 238 100 22 47 23 66 8 120 -9 31 -39 68 -130
160 -65 67 -119 125 -119 131 0 5 52 61 116 124 65 64 124 133 135 155 43 92
8 194 -83 241 -32 17 -121 18 -151 3 -12 -6 -79 -67 -148 -135 -69 -68 -130
-124 -135 -124 -5 0 -63 54 -129 121 -66 66 -137 129 -157 140 -43 22 -110 24
-153 5z m128 -40 c18 -7 95 -77 171 -155 l139 -142 141 139 c78 77 151 145
163 151 50 26 122 6 162 -45 16 -20 21 -41 21 -88 l0 -61 -145 -144 c-80 -79
-145 -145 -145 -147 0 -1 57 -58 126 -126 69 -67 132 -135 140 -150 8 -15 14
-47 14 -72 0 -39 -6 -51 -38 -85 -44 -46 -95 -60 -145 -40 -17 7 -92 72 -165
145 l-133 131 -137 -138 c-147 -147 -179 -167 -243 -149 -52 15 -76 37 -94 85
-29 76 -16 99 144 259 l139 139 -116 111 c-163 157 -192 195 -192 257 0 40 5
54 32 85 48 55 97 67 161 40z"></path>
<path d="M3793 3621 c-50 -23 -92 -82 -100 -140 -10 -73 15 -114 152 -251 69
-69 125 -129 125 -134 0 -5 -55 -66 -123 -135 -105 -107 -125 -133 -135 -172
-21 -84 23 -174 102 -210 96 -44 140 -25 298 129 l129 126 117 -117 c151 -150
209 -174 302 -127 60 31 93 81 98 151 6 77 -16 114 -147 244 -56 55 -101 104
-101 109 0 5 56 66 123 135 111 113 125 131 136 177 29 121 -51 224 -172 224
-25 0 -58 -5 -74 -11 -15 -5 -85 -67 -155 -137 l-128 -126 -128 127 c-73 72
-144 133 -165 142 -49 20 -103 19 -154 -4z m124 -31 c15 -6 94 -77 175 -158
l148 -146 153 152 c150 149 154 152 197 152 88 0 146 -64 137 -153 -4 -48 -8
-52 -146 -191 -77 -78 -141 -146 -141 -151 0 -6 57 -66 126 -135 137 -136 159
-170 149 -232 -13 -74 -100 -133 -167 -113 -12 4 -87 71 -166 148 l-142 141
-143 -141 c-91 -90 -154 -145 -176 -152 -88 -29 -179 50 -168 146 5 43 13 53
146 187 78 78 141 146 141 151 0 5 -67 77 -150 160 l-150 151 0 52 c0 43 5 57
32 88 47 53 87 65 145 44z"></path>
<path d="M2554 1925 l-25 -25 3 -225 c3 -260 3 -260 89 -260 63 0 89 26 89 87
0 39 1 40 28 34 69 -17 83 -18 107 -2 37 25 45 20 45 -29 0 -36 6 -52 26 -72
22 -22 32 -25 70 -20 25 2 54 13 64 22 19 17 21 17 41 -1 18 -16 40 -19 149
-22 101 -3 134 0 158 12 27 14 33 14 62 0 39 -20 96 -13 123 14 10 11 21 38
24 61 5 38 8 42 27 35 27 -9 85 -9 114 1 20 7 22 4 22 -30 0 -27 8 -44 30 -67
28 -27 36 -30 76 -25 25 2 54 13 64 22 19 17 21 17 41 -1 18 -16 40 -19 155
-22 l134 -4 30 30 c48 48 34 119 -27 143 l-25 9 31 29 c37 35 42 85 11 123
l-19 25 23 22 c13 12 26 35 30 51 7 37 -10 87 -34 100 -10 6 -77 10 -148 10
-116 0 -132 -2 -156 -21 l-26 -20 -26 20 c-36 28 -112 29 -147 1 -14 -11 -40
-45 -57 -75 -17 -30 -36 -55 -41 -55 -5 0 -23 25 -40 55 -17 30 -42 64 -56 75
-32 25 -109 27 -141 4 -20 -14 -24 -14 -44 0 -18 13 -51 16 -154 16 -118 0
-134 -2 -158 -21 l-26 -20 -26 20 c-36 28 -112 29 -147 1 -14 -11 -39 -45 -56
-75 -17 -30 -36 -55 -41 -55 -5 0 -24 25 -41 55 -42 75 -70 95 -131 95 -39 0
-54 -5 -74 -25z m136 -45 c11 -16 38 -62 60 -102 21 -40 43 -73 49 -73 10 0
31 34 91 148 l31 58 50 -3 51 -3 0 -219 c0 -125 -4 -222 -10 -228 -5 -5 -25
-8 -43 -6 l-34 3 -3 138 c-1 75 -6 137 -10 137 -5 0 -23 -32 -42 -70 -63 -131
-94 -134 -155 -15 -22 44 -45 81 -50 82 -6 2 -9 -46 -6 -122 2 -89 0 -130 -9
-140 -15 -18 -64 -20 -77 -2 -7 8 -10 412 -3 445 0 1 20 2 44 2 38 0 48 -4 66
-30z m695 -15 l0 -40 -85 -5 -85 -5 0 -40 0 -40 80 -5 80 -5 0 -40 0 -40 -80
-1 -80 0 0 -50 0 -49 90 -5 89 -5 2 -33 c1 -18 -3 -35 -9 -39 -12 -7 -256 -7
-264 0 -3 4 -7 401 -3 442 0 3 60 4 133 3 l132 -3 0 -40z m209 -7 c18 -29 45
-77 60 -105 14 -29 30 -53 34 -53 4 0 33 47 66 105 l58 106 52 -3 51 -3 3
-214 c1 -133 -1 -218 -8 -226 -10 -12 -74 -14 -86 -2 -4 4 -6 65 -5 137 1 78
-1 130 -7 130 -6 0 -17 -17 -27 -37 -9 -21 -27 -60 -41 -86 -22 -44 -27 -48
-56 -45 -28 3 -35 11 -72 85 -23 45 -44 82 -48 83 -4 0 -9 -62 -10 -137 l-3
-138 -45 0 -45 0 -3 215 c-1 118 0 220 2 227 3 8 23 13 51 13 44 0 46 -2 79
-52z m681 7 l0 -40 -85 -5 -85 -5 -3 -42 -3 -42 83 -3 83 -3 0 -40 0 -40 -80
-1 -80 0 0 -50 0 -49 80 -3 c43 -2 85 -8 92 -14 16 -13 17 -54 2 -64 -15 -9
-252 -9 -267 0 -13 8 -18 427 -5 440 4 3 66 5 137 4 l131 -3 0 -40z m-855 -98
c0 -8 -3 -17 -7 -20 -9 -9 -34 13 -27 24 8 14 34 11 34 -4z m0 -168 c0 -13 -7
-19 -23 -19 -35 0 -41 12 -15 31 26 20 38 16 38 -12z"></path>
</g>
</svg>